<svg xmlns="http://www.w3.org/2000/svg" xml:space="preserve" viewBox="0 0 512 341.3"><path fill="#f0f0f0" d="M0 0h512v341H0Z"/><path fill="#d80027" d="M288 0h-64v139H0v64h224v138h64V203h224v-64H288Z"/><path fill="#0052b4" d="m394 230 118 66v-66zm-82 0 200 111v-31l-144-80Zm147 111-147-81v81z"/><path fill="#f0f0f0" d="m312 230 200 111v-31l-144-80Z"/><path fill="#d80027" d="m312 230 200 111v-31l-144-80Z"/><path fill="#0052b4" d="M90 230 0 280v-50zm110 14v97H25Z"/><path fill="#d80027" d="M144 230 0 310v31l200-111z"/><path fill="#0052b4" d="M118 111 0 46v65zm82 0L0 0v31l144 80zM53 0l147 82V0Z"/><path fill="#f0f0f0" d="M200 111 0 0v31l144 80z"/><path fill="#d80027" d="M200 111 0 0v31l144 80z"/><path fill="#0052b4" d="m422 111 90-50v50zM312 97V0h175z"/><path fill="#d80027" d="m368 111 144-80V0L312 111Z"/></svg>