<?xml version="1.0" encoding="UTF-8" standalone="no"?>
<svg
   xmlns:dc="http://purl.org/dc/elements/1.1/"
   xmlns:cc="http://creativecommons.org/ns#"
   xmlns:rdf="http://www.w3.org/1999/02/22-rdf-syntax-ns#"
   xmlns:svg="http://www.w3.org/2000/svg"
   xmlns="http://www.w3.org/2000/svg"
   xmlns:sodipodi="http://sodipodi.sourceforge.net/DTD/sodipodi-0.dtd"
   xmlns:inkscape="http://www.inkscape.org/namespaces/inkscape"
   width="33.545387mm"
   height="43.645992mm"
   viewBox="0 0 33.545387 43.645992"
   version="1.1"
   id="svg8"
   inkscape:version="1.0.2 (e86c870879, 2021-01-15)"
   sodipodi:docname="404.svg">
  <defs
     id="defs2" />
  <sodipodi:namedview
     id="base"
     pagecolor="#ffffff"
     bordercolor="#666666"
     borderopacity="1.0"
     inkscape:pageopacity="0.0"
     inkscape:pageshadow="2"
     inkscape:zoom="0.98994949"
     inkscape:cx="138.9086"
     inkscape:cy="138.03821"
     inkscape:document-units="mm"
     inkscape:current-layer="layer1"
     inkscape:document-rotation="0"
     showgrid="false"
     inkscape:snap-global="true"
     fit-margin-top="0"
     fit-margin-left="0"
     fit-margin-right="0"
     fit-margin-bottom="0"
     inkscape:window-width="1920"
     inkscape:window-height="1017"
     inkscape:window-x="-8"
     inkscape:window-y="-8"
     inkscape:window-maximized="1" />
  <metadata
     id="metadata5">
    <rdf:RDF>
      <cc:Work
         rdf:about="">
        <dc:format>image/svg+xml</dc:format>
        <dc:type
           rdf:resource="http://purl.org/dc/dcmitype/StillImage" />
        <dc:title></dc:title>
      </cc:Work>
    </rdf:RDF>
  </metadata>
  <g
     inkscape:label="Layer 1"
     inkscape:groupmode="layer"
     id="layer1"
     transform="translate(-76.256512,-119.76633)">
    <path
       id="rect865"
       style="opacity:1;fill:#02977a;fill-opacity:1;stroke-width:3"
       d="m 351.40625,452.66016 c -11.09947,0 -20.09767,7.51802 -20.09766,16.79296 1e-5,3.32021 -0.0441,6.3194 -0.0644,9.10743 h -24.98828 c -5.24648,0 -9.4707,4.22422 -9.4707,9.4707 v 106.77344 c 0,5.24648 4.22422,9.4707 9.4707,9.4707 h 90.70312 c 5.24648,0 9.46875,-4.22422 9.46875,-9.4707 V 488.03125 c 0,-5.24648 -4.22227,-9.4707 -9.46875,-9.4707 h -25.13671 c -0.0794,-3.47761 -0.18922,-6.7349 -0.31836,-9.10743 -0.50415,-9.26122 -8.99819,-16.79296 -20.09766,-16.79296 z m 0.0312,4.41796 c 9.20699,0 16.25173,6.24949 16.66992,13.93165 0.1068,1.9619 0.18895,4.67433 0.25391,7.55078 h -33.64844 c 0.0167,-2.31343 0.0527,-4.7947 0.0527,-7.55078 0,-7.69357 7.46489,-13.93164 16.67188,-13.93165 z"
       transform="scale(0.26458333)" />
    <ellipse
       style="opacity:1;fill:#dae2e0;fill-opacity:1;stroke-width:0.657993"
       id="path950"
       cx="93.029205"
       cy="159.30183"
       rx="16.772694"
       ry="4.1104908" />
    <path
       id="rect941"
       style="opacity:1;fill:#02c09b;fill-opacity:1;stroke-width:3"
       d="m 304.63281,478.70898 c -4.46636,0.76671 -7.84765,4.6305 -7.84765,9.32227 v 106.77344 c 0,5.24648 4.22422,9.4707 9.4707,9.4707 h 90.70312 c 5.24648,0 9.46875,-4.22422 9.46875,-9.4707 V 488.03125 c 0,-4.69131 -3.37999,-8.55502 -7.8457,-9.32227 a 15.876637,21.323066 0 0 0 -6.01562,16.70704 15.876637,21.323066 0 0 0 6.15429,16.85742 h -26.88867 c -0.0797,-3.60207 -0.19491,-6.97463 -0.32812,-9.42188 -0.50415,-9.26124 -8.99819,-16.79297 -20.09766,-16.79297 -11.09947,0 -20.09767,7.51801 -20.09766,16.79297 1e-5,3.43482 -0.0471,6.55507 -0.0664,9.42188 h -26.75 a 15.876637,21.323066 0 0 0 6.15429,-16.85742 15.876637,21.323066 0 0 0 -6.01367,-16.70704 z m 46.80469,11.76758 c 9.20699,0 16.25173,6.24949 16.66992,13.93164 0.11084,2.03637 0.19778,4.86608 0.26367,7.86524 h -7.00586 -19.51757 -7.13672 c 0.0155,-2.3923 0.0547,-4.99436 0.0547,-7.86524 0,-7.69357 7.46489,-13.93164 16.67188,-13.93164 z"
       transform="scale(0.26458333)" />
    <circle
       style="opacity:1;fill:#02977a;fill-opacity:1;stroke-width:0.75123"
       id="path867"
       cx="92.761108"
       cy="150.21358"
       r="4.1737118" />
    <circle
       style="opacity:1;fill:#02caa3;fill-opacity:1;stroke-width:0.394061"
       id="circle871"
       cx="92.794518"
       cy="151.31607"
       r="2.1893368" />
    <path
       id="rect873"
       style="opacity:1;fill:#02977a;fill-opacity:1;stroke-width:3.25869"
       d="m 326.39844,536.42188 c -0.47301,0 -0.94615,0.17963 -1.3086,0.53906 -0.72488,0.71885 -0.72488,1.87685 0,2.5957 l 2.20313,2.18555 -2.20313,2.18359 c -0.72488,0.71885 -0.72488,1.87685 0,2.5957 0.72489,0.71886 1.89231,0.71886 2.61719,0 l 2.20313,-2.18554 2.20507,2.18554 c 0.72489,0.71886 1.89036,0.71886 2.61524,0 0.72488,-0.71885 0.72488,-1.87685 0,-2.5957 l -2.20313,-2.18359 2.20313,-2.18555 c 0.72488,-0.71885 0.72488,-1.87685 0,-2.5957 -0.72488,-0.71885 -1.89035,-0.71885 -2.61524,0 l -2.20507,2.18554 -2.20313,-2.18554 c -0.36244,-0.35943 -0.83559,-0.53906 -1.30859,-0.53906 z"
       transform="scale(0.26458333)" />
    <path
       id="rect881"
       style="opacity:1;fill:#02977a;fill-opacity:1;stroke-width:3.25869"
       d="m 369.51953,536.42188 c -0.473,0 -0.94615,0.17963 -1.30859,0.53906 -0.72489,0.71885 -0.72489,1.87685 0,2.5957 l 2.20312,2.18555 -2.20312,2.18359 c -0.72489,0.71885 -0.72489,1.87685 0,2.5957 0.72488,0.71886 1.8923,0.71886 2.61718,0 l 2.20313,-2.18554 2.20313,2.18554 c 0.72488,0.71886 1.8923,0.71886 2.61718,0 0.72489,-0.71885 0.72489,-1.87685 0,-2.5957 l -2.20312,-2.18359 2.20312,-2.18555 c 0.72489,-0.71885 0.72489,-1.87685 0,-2.5957 -0.72488,-0.71885 -1.8923,-0.71885 -2.61718,0 l -2.20313,2.18554 -2.20313,-2.18554 c -0.36244,-0.35943 -0.83558,-0.53906 -1.30859,-0.53906 z"
       transform="scale(0.26458333)" />
  </g>
</svg>
