<?xml version="1.0" encoding="UTF-8" standalone="no"?>
<svg
   xmlns:dc="http://purl.org/dc/elements/1.1/"
   xmlns:cc="http://creativecommons.org/ns#"
   xmlns:rdf="http://www.w3.org/1999/02/22-rdf-syntax-ns#"
   xmlns:svg="http://www.w3.org/2000/svg"
   xmlns="http://www.w3.org/2000/svg"
   xmlns:sodipodi="http://sodipodi.sourceforge.net/DTD/sodipodi-0.dtd"
   xmlns:inkscape="http://www.inkscape.org/namespaces/inkscape"
   width="173.11331"
   height="28"
   viewBox="0 0 173.11331 28"
   fill="none"
   version="1.1"
   id="svg6"
   sodipodi:docname="logo.svg"
   inkscape:version="1.0.2 (e86c870879, 2021-01-15)">
  <metadata
     id="metadata12">
    <rdf:RDF>
      <cc:Work
         rdf:about="">
        <dc:format>image/svg+xml</dc:format>
        <dc:type
           rdf:resource="http://purl.org/dc/dcmitype/StillImage" />
        <dc:title></dc:title>
      </cc:Work>
    </rdf:RDF>
  </metadata>
  <defs
     id="defs10" />
  <sodipodi:namedview
     pagecolor="#ffffff"
     bordercolor="#666666"
     borderopacity="1"
     objecttolerance="10"
     gridtolerance="10"
     guidetolerance="10"
     inkscape:pageopacity="0"
     inkscape:pageshadow="2"
     inkscape:window-width="1920"
     inkscape:window-height="1017"
     id="namedview8"
     showgrid="false"
     fit-margin-top="0"
     fit-margin-left="0"
     fit-margin-right="0"
     fit-margin-bottom="0"
     inkscape:zoom="6.1966304"
     inkscape:cx="91.387756"
     inkscape:cy="34.785267"
     inkscape:window-x="-8"
     inkscape:window-y="-8"
     inkscape:window-maximized="1"
     inkscape:current-layer="svg6"
     inkscape:document-rotation="0" />
  <path
     fill-rule="evenodd"
     clip-rule="evenodd"
     d="m 11.999905,23.4202 c -2.3005004,0 -4.3926004,-1.2986 -5.3602304,-3.3141 -0.20434,-0.4254 -0.01353,-0.9335 0.42493,-1.1318 0.4385,-0.1983 0.9622,-0.0131 1.1665,0.4123 0.6807,1.418 2.1503004,2.3293 3.7688004,2.3293 1.6199,0 3.0895,-0.9113 3.7689,-2.3293 0.2043,-0.4267 0.7267,-0.6106 1.1665,-0.4123 0.4385,0.1983 0.6293,0.7051 0.4249,1.1318 -0.9676,2.0155 -3.0597,3.3141 -5.3603,3.3141 z M 9.3083046,2.7808103 c -0.6915,0.67096 -1.1205,1.59532 -1.1205,2.61029 v 1.09374 h 3.8121004 3.8122 v -1.09374 c 0,-1.01628 -0.429,-1.94065 -1.1205,-2.61029 -1.4927,-1.44826 -3.8893,-1.44826 -5.3833004,0 z M 2.6218346,28 h 9.3780704 9.3782 c 1.4398,0 2.6957,-1.1463 2.6185,-2.5407 l -0.9094,-16.4337997 c -0.0771,-1.39439 -1.1787,-2.54066 -2.6185,-2.54066 h -2.9014 v -1.09374 c 0,-1.48634 -0.6266,-2.83744 -1.6348,-3.81564 -2.1665,-2.10083201 -5.6986,-2.10083201 -7.8651004,0.00131 -1.0082,0.9782 -1.63478,2.3293 -1.63478,3.81564 v 1.09375 h -2.9014 c -1.43987,0 -2.54142997,1.14626 -2.61855997,2.54074 L 0.00326463,25.4606 C -0.07251537,26.855 1.1819646,28 2.6218346,28 Z"
     fill="#02b290"
     id="path4" />
  <g
     id="g920"
     transform="matrix(1.0587419,0,0,1.0587419,-2.141564,-3.198036)">
    <path
       d="M 33.663747,24.163133 V 10.344951 h 9.149148 v 2.408736 h -6.227628 v 3.292614 h 5.620383 v 2.408735 h -5.620383 v 5.708097 z"
       style="font-style:normal;font-variant:normal;font-weight:bold;font-stretch:normal;font-size:19px;line-height:1.25;font-family:Inter;-inkscape-font-specification:'Inter Bold';fill:#000000"
       id="path852" />
    <path
       d="M 44.549606,24.163133 V 13.799497 h 2.786577 v 1.808238 h 0.107954 q 0.283381,-0.964844 0.95135,-1.457386 0.667969,-0.49929 1.538352,-0.49929 0.215909,0 0.465554,0.02699 0.249645,0.02699 0.438565,0.07422 v 2.550427 q -0.202414,-0.06072 -0.560014,-0.107955 -0.357599,-0.04723 -0.654474,-0.04723 -0.634233,0 -1.133523,0.276633 -0.492543,0.269887 -0.78267,0.755682 -0.283381,0.485796 -0.283381,1.120029 v 5.863281 z"
       style="font-style:normal;font-variant:normal;font-weight:bold;font-stretch:normal;font-size:19px;line-height:1.25;font-family:Inter;-inkscape-font-specification:'Inter Bold';fill:#000000"
       id="path854" />
    <path
       d="m 56.552796,24.365548 q -1.599077,0 -2.752841,-0.647728 -1.147017,-0.654474 -1.767756,-1.848721 -0.620739,-1.200994 -0.620739,-2.840554 0,-1.599077 0.620739,-2.806818 0.620739,-1.207742 1.747514,-1.882458 1.133523,-0.674716 2.658381,-0.674716 1.025568,0 1.909446,0.330611 0.890625,0.323864 1.551846,0.978338 0.667969,0.654475 1.039063,1.646307 0.371094,0.985085 0.371094,2.307528 v 0.789418 h -8.751066 v -1.78125 h 6.045455 q 0,-0.620739 -0.269886,-1.099787 -0.269887,-0.479048 -0.748935,-0.748934 -0.472301,-0.276634 -1.099787,-0.276634 -0.654474,0 -1.160511,0.303622 -0.49929,0.296875 -0.782671,0.802912 -0.283381,0.49929 -0.290128,1.113281 v 1.693537 q 0,0.769176 0.283381,1.329191 0.290128,0.560014 0.816406,0.863636 0.526279,0.303622 1.248225,0.303622 0.479048,0 0.87713,-0.134943 0.398083,-0.134943 0.681463,-0.40483 0.283381,-0.269886 0.431819,-0.661221 l 2.65838,0.175426 q -0.202415,0.958097 -0.8299,1.673295 -0.620739,0.708452 -1.605824,1.106534 -0.978338,0.391336 -2.260298,0.391336 z"
       style="font-style:normal;font-variant:normal;font-weight:bold;font-stretch:normal;font-size:19px;line-height:1.25;font-family:Inter;-inkscape-font-specification:'Inter Bold';fill:#000000"
       id="path856" />
    <path
       d="m 71.808086,16.754752 -2.631392,0.161932 q -0.06747,-0.337358 -0.290128,-0.607244 -0.222656,-0.276634 -0.587003,-0.438566 -0.357599,-0.168679 -0.856889,-0.168679 -0.667969,0 -1.126776,0.283381 -0.458806,0.276634 -0.458806,0.742188 0,0.371093 0.296875,0.627485 0.296875,0.256392 1.018821,0.411577 l 1.87571,0.377841 q 1.511364,0.310369 2.253551,0.99858 0.742188,0.68821 0.742188,1.808238 0,1.018821 -0.600498,1.787997 -0.59375,0.769177 -1.632812,1.200995 -1.032315,0.425071 -2.381747,0.425071 -2.057884,0 -3.27912,-0.856889 -1.214488,-0.863637 -1.42365,-2.348012 l 2.82706,-0.148437 q 0.128196,0.627485 0.620738,0.958096 0.492543,0.323864 1.261719,0.323864 0.755682,0 1.214489,-0.290128 0.465554,-0.296875 0.472301,-0.762429 -0.0067,-0.391335 -0.330611,-0.64098 -0.323864,-0.256392 -0.99858,-0.391335 l -1.794744,-0.3576 q -1.518111,-0.303622 -2.260298,-1.052557 -0.735441,-0.748934 -0.735441,-1.909446 0,-0.998579 0.539773,-1.720525 0.54652,-0.721946 1.531605,-1.113281 0.991833,-0.391336 2.321023,-0.391336 1.963423,0 3.090199,0.829901 1.133523,0.829901 1.322443,2.260298 z"
       style="font-style:normal;font-variant:normal;font-weight:bold;font-stretch:normal;font-size:19px;line-height:1.25;font-family:Inter;-inkscape-font-specification:'Inter Bold';fill:#000000"
       id="path858" />
    <path
       d="m 76.733487,18.171656 v 5.991477 h -2.87429 V 10.344951 h 2.793324 v 5.283026 h 0.121449 q 0.350852,-0.917614 1.133523,-1.437145 0.78267,-0.526279 1.963423,-0.526279 1.079546,0 1.882458,0.472302 0.809659,0.465554 1.254971,1.342684 0.45206,0.870384 0.445313,2.084872 v 6.598722 h -2.87429 v -6.085938 q 0.0067,-0.958096 -0.485796,-1.491122 -0.485795,-0.533025 -1.362926,-0.533025 -0.587003,0 -1.039062,0.249645 -0.445313,0.249644 -0.701705,0.728693 -0.249645,0.472301 -0.256392,1.14027 z"
       style="font-style:normal;font-variant:normal;font-weight:bold;font-stretch:normal;font-size:19px;line-height:1.25;font-family:Inter;-inkscape-font-specification:'Inter Bold';fill:#000000"
       id="path860" />
    <path
       d="M 95.078965,24.163133 H 90.180528 V 10.344951 h 4.93892 q 2.084872,0 3.589489,0.829901 1.504623,0.823153 2.314283,2.368253 0.8164,1.545099 0.8164,3.697443 0,2.159091 -0.8164,3.710937 -0.80966,1.551847 -2.327778,2.381747 -1.511363,0.829901 -3.616477,0.829901 z m -1.976917,-2.503196 h 1.855468 q 1.295455,0 2.179333,-0.458807 0.890625,-0.465554 1.335937,-1.437145 0.45206,-0.978338 0.45206,-2.523437 0,-1.531605 -0.45206,-2.503196 -0.445312,-0.971591 -1.32919,-1.430398 -0.883878,-0.458807 -2.179332,-0.458807 h -1.862216 z"
       style="font-style:normal;font-variant:normal;font-weight:bold;font-stretch:normal;font-size:19px;line-height:1.25;font-family:Inter;-inkscape-font-specification:'Inter Bold';fill:#000000"
       id="path862" />
    <path
       d="m 108.66773,24.365548 q -1.59908,0 -2.75284,-0.647728 -1.14702,-0.654474 -1.76776,-1.848721 -0.62073,-1.200994 -0.62073,-2.840554 0,-1.599077 0.62073,-2.806818 0.62074,-1.207742 1.74752,-1.882458 1.13352,-0.674716 2.65838,-0.674716 1.02557,0 1.90944,0.330611 0.89063,0.323864 1.55185,0.978338 0.66797,0.654475 1.03906,1.646307 0.3711,0.985085 0.3711,2.307528 v 0.789418 h -8.75107 v -1.78125 h 6.04546 q 0,-0.620739 -0.26989,-1.099787 -0.26989,-0.479048 -0.74893,-0.748934 -0.47231,-0.276634 -1.09979,-0.276634 -0.65448,0 -1.16051,0.303622 -0.49929,0.296875 -0.78267,0.802912 -0.28338,0.49929 -0.29013,1.113281 v 1.693537 q 0,0.769176 0.28338,1.329191 0.29013,0.560014 0.81641,0.863636 0.52627,0.303622 1.24822,0.303622 0.47905,0 0.87713,-0.134943 0.39808,-0.134943 0.68146,-0.40483 0.28339,-0.269886 0.43182,-0.661221 l 2.65838,0.175426 q -0.20241,0.958097 -0.8299,1.673295 -0.62074,0.708452 -1.60582,1.106534 -0.97834,0.391336 -2.2603,0.391336 z"
       style="font-style:normal;font-variant:normal;font-weight:bold;font-stretch:normal;font-size:19px;line-height:1.25;font-family:Inter;-inkscape-font-specification:'Inter Bold';fill:#000000"
       id="path864" />
    <path
       d="m 118.17445,10.344951 v 13.818182 h -2.87429 V 10.344951 Z"
       style="font-style:normal;font-variant:normal;font-weight:bold;font-stretch:normal;font-size:19px;line-height:1.25;font-family:Inter;-inkscape-font-specification:'Inter Bold';fill:#000000"
       id="path866" />
    <path
       d="M 120.46847,24.163133 V 13.799497 h 2.87429 v 10.363636 z m 1.44389,-11.699574 q -0.64098,0 -1.09979,-0.425071 -0.45205,-0.431818 -0.45205,-1.032315 0,-0.59375 0.45205,-1.0188212 0.45881,-0.4318182 1.09979,-0.4318182 0.64098,0 1.09304,0.4318182 0.45881,0.4250712 0.45881,1.0188212 0,0.600497 -0.45881,1.032315 -0.45206,0.425071 -1.09304,0.425071 z"
       style="font-style:normal;font-variant:normal;font-weight:bold;font-stretch:normal;font-size:19px;line-height:1.25;font-family:Inter;-inkscape-font-specification:'Inter Bold';fill:#000000"
       id="path868" />
    <path
       d="m 135.29871,13.799497 -3.62322,10.363636 h -3.23864 l -3.62322,-10.363636 h 3.03622 l 2.15234,7.415127 h 0.10796 l 2.14559,-7.415127 z"
       style="font-style:normal;font-variant:normal;font-weight:bold;font-stretch:normal;font-size:19px;line-height:1.25;font-family:Inter;-inkscape-font-specification:'Inter Bold';fill:#000000"
       id="path870" />
    <path
       d="m 141.1471,24.365548 q -1.59908,0 -2.75284,-0.647728 -1.14702,-0.654474 -1.76776,-1.848721 -0.62073,-1.200994 -0.62073,-2.840554 0,-1.599077 0.62073,-2.806818 0.62074,-1.207742 1.74752,-1.882458 1.13352,-0.674716 2.65838,-0.674716 1.02557,0 1.90945,0.330611 0.89062,0.323864 1.55184,0.978338 0.66797,0.654475 1.03906,1.646307 0.3711,0.985085 0.3711,2.307528 v 0.789418 h -8.75107 v -1.78125 h 6.04546 q 0,-0.620739 -0.26989,-1.099787 -0.26989,-0.479048 -0.74893,-0.748934 -0.47231,-0.276634 -1.09979,-0.276634 -0.65448,0 -1.16051,0.303622 -0.49929,0.296875 -0.78267,0.802912 -0.28338,0.49929 -0.29013,1.113281 v 1.693537 q 0,0.769176 0.28338,1.329191 0.29013,0.560014 0.81641,0.863636 0.52627,0.303622 1.24822,0.303622 0.47905,0 0.87713,-0.134943 0.39808,-0.134943 0.68146,-0.40483 0.28339,-0.269886 0.43182,-0.661221 l 2.65838,0.175426 q -0.20241,0.958097 -0.8299,1.673295 -0.62074,0.708452 -1.60582,1.106534 -0.97834,0.391336 -2.2603,0.391336 z"
       style="font-style:normal;font-variant:normal;font-weight:bold;font-stretch:normal;font-size:19px;line-height:1.25;font-family:Inter;-inkscape-font-specification:'Inter Bold';fill:#000000"
       id="path872" />
    <path
       d="M 147.77952,24.163133 V 13.799497 h 2.78658 v 1.808238 h 0.10795 q 0.28338,-0.964844 0.95135,-1.457386 0.66797,-0.49929 1.53835,-0.49929 0.21591,0 0.46556,0.02699 0.24964,0.02699 0.43856,0.07422 v 2.550427 q -0.20241,-0.06072 -0.56001,-0.107955 -0.3576,-0.04723 -0.65448,-0.04723 -0.63423,0 -1.13352,0.276633 -0.49254,0.269887 -0.78267,0.755682 -0.28338,0.485796 -0.28338,1.120029 v 5.863281 z"
       style="font-style:normal;font-variant:normal;font-weight:bold;font-stretch:normal;font-size:19px;line-height:1.25;font-family:Inter;-inkscape-font-specification:'Inter Bold';fill:#000000"
       id="path874" />
    <path
       d="m 157.64383,28.049497 q -0.54652,0 -1.02557,-0.08771 -0.4723,-0.08097 -0.78267,-0.209162 l 0.64773,-2.145597 q 0.50603,0.155185 0.91086,0.168679 0.41158,0.01349 0.70846,-0.18892 0.30362,-0.202415 0.49254,-0.688211 l 0.16868,-0.438565 -3.71769,-10.660511 h 3.02273 l 2.1456,7.610795 h 0.10795 l 2.16584,-7.610795 h 3.04297 l -4.02806,11.483664 q -0.29012,0.836648 -0.78941,1.457387 -0.49255,0.627486 -1.24823,0.964843 -0.75568,0.344106 -1.82173,0.344106 z"
       style="font-style:normal;font-variant:normal;font-weight:bold;font-stretch:normal;font-size:19px;line-height:1.25;font-family:Inter;-inkscape-font-specification:'Inter Bold';fill:#000000"
       id="path876" />
  </g>
</svg>
